# xmcd
#
# Track frame offsets:
#	150
#	14556
#	25018
#	42639
#	56749
#	64595
#	82818
#	97330
#	114073
#	131979
#	152527
#	163431
#	181793
#	192475
#	205012
#	220926
#	228530
#	255551
#	268465
#	294275
#	298276
#	316324
#	332749
#
# Disc length: 4680 seconds
# Revision: 0
# Processed by: cddbd v1.5.2PL0 Copyright (c) Steve Scherf et al.
# Submitted via: dBpowerAMP V12.0
#
DISCID=5f124617
DTITLE=Various Artist - Rough Trade Shops ~ Counter Culture '04 - Best of 2004 [dBP-LITE-FLAC+3]
DYEAR=2005
DGENRE=Pop/Rock
TTITLE0=Susanna And The Magical Orchestra - Believer
TTITLE1=Mara Carlyle - Bravely Born(e)
TTITLE2=Magoo - Peace, Love and Blood
TTITLE3=CocoRosie - Butterscotch
TTITLE4=Ambrose Tompkins - Running on Grass
TTITLE5=Britta Phillips/Dean Wareham - Your Baby (Can't Stand the Rain)
TTITLE6=Cryan' Shames, The - Please Stay
TTITLE7=Holly Golightly - On the Fire
TTITLE8=Willy Mason - Live It Up
TTITLE9=Jolie Holland - Old Fashioned Morphine
TTITLE10=Elliott Smith - Let's Get Lost
TTITLE11=Micah P. Hinson and The Opera Circuit - I Still Remember
TTITLE12=Candi Staton - You Don't Love Me No More
TTITLE13=Sunburned Hand of the Man - Buried Pleasure
TTITLE14=Sons and Daughters - Start to End
TTITLE15=Jad Fair - The Bang of the Whistle
TTITLE16=Coil - Sex with Sun Ra
TTITLE17=Andrew Kotting/Jem Finer - Rockaway
TTITLE18=Sonic Youth - Dude Ranch Nurse
TTITLE19=Animal Collective - College
TTITLE20=Pony Up! - I Heard You Got Action
TTITLE21=Cornershop - Topknot
TTITLE22=Alan Glenn - Stone Fox Chase
EXTD=
EXTT0=
EXTT1=
EXTT2=
EXTT3=
EXTT4=
EXTT5=
EXTT6=
EXTT7=
EXTT8=
EXTT9=
EXTT10=
EXTT11=
EXTT12=
EXTT13=
EXTT14=
EXTT15=
EXTT16=
EXTT17=
EXTT18=
EXTT19=
EXTT20=
EXTT21=
EXTT22=
PLAYORDER=
